<svg width="21" height="24" viewBox="0 0 21 24" fill="none" xmlns="http://www.w3.org/2000/svg">
<path d="M12.082 5.5C12.9987 5.5 13.7487 4.6 13.7487 3.5C13.7487 2.4 12.9987 1.5 12.082 1.5C11.1654 1.5 10.4154 2.4 10.4154 3.5C10.4154 4.6 11.1654 5.5 12.082 5.5ZM8.9987 8.9L6.66536 23H8.41536L9.91536 15L11.6654 17V23H13.332V15.5L11.582 13.5L12.082 10.5C13.1654 12 14.832 13 16.6654 13V11C15.082 11 13.7487 10 13.082 8.6L12.2487 7C12.0236 6.56816 11.6779 6.24651 11.2733 6.09261C10.8687 5.93871 10.4316 5.96259 10.0404 6.16L5.83203 8.3V13H7.4987V9.6L8.9987 8.9Z" fill="#0F172A"/>
</svg>
