<svg width="24" height="24" viewBox="0 0 24 24" fill="none" xmlns="http://www.w3.org/2000/svg">
<path fill-rule="evenodd" clip-rule="evenodd" d="M21.5099 2.58002C20.9487 2.02336 20.1904 1.71071 19.3999 1.71002C18.7152 1.71225 18.0518 1.94867 17.5199 2.38002L8.14992 10L7.99992 10.15C6.69395 11.4448 6.40424 13.4483 7.28992 15.06C6.92656 14.9492 6.54972 14.8886 6.16992 14.88C3.96078 14.88 2.16992 16.6709 2.16992 18.88V21.38C2.16992 22.2084 2.84149 22.88 3.66992 22.88H6.16992C7.55853 22.8724 8.84384 22.1452 9.56546 20.9588C10.2871 19.7724 10.3418 18.2966 9.70992 17.06C10.1096 17.195 10.5281 17.2658 10.9499 17.27C12.0575 17.2775 13.1211 16.8376 13.8999 16.05L13.9999 15.94L21.6699 6.57002C22.6381 5.39253 22.5692 3.67621 21.5099 2.58002ZM6.20992 21.38H3.70992V18.88C3.70992 17.4993 4.82921 16.38 6.20992 16.38C7.59063 16.38 8.70992 17.4993 8.70992 18.88C8.70992 20.2607 7.59063 21.38 6.20992 21.38ZM12.8799 15L20.5499 5.62002C21.0201 5.03111 20.9727 4.18297 20.4398 3.65012C19.907 3.11727 19.0588 3.06987 18.4699 3.54002L9.09992 11.21C8.05334 12.2538 8.0511 13.9484 9.09492 14.995C10.1387 16.0416 11.8333 16.0438 12.8799 15Z" fill="black"/>
<path d="M13.1999 9.83002L10.1999 12.83C9.90747 13.1228 9.90747 13.5972 10.1999 13.89C10.4927 14.1825 10.9671 14.1825 11.2599 13.89L14.2599 10.89C14.4606 10.7031 14.5432 10.4215 14.4753 10.1557C14.4074 9.89 14.1999 9.6825 13.9342 9.61464C13.6685 9.54677 13.3869 9.62937 13.1999 9.83002Z" fill="black"/>
</svg>
