<svg width="26" height="25" viewBox="0 0 26 25" fill="none" xmlns="http://www.w3.org/2000/svg">
<path d="M22.707 7.58333V5.20833C22.707 4.0625 21.7695 3.125 20.6237 3.125H6.04036C5.48783 3.125 4.95793 3.34449 4.56723 3.73519C4.17652 4.12589 3.95703 4.6558 3.95703 5.20833V19.7917C3.95703 20.3442 4.17652 20.8741 4.56723 21.2648C4.95793 21.6555 5.48783 21.875 6.04036 21.875H20.6237C21.7695 21.875 22.707 20.9375 22.707 19.7917V17.4167C23.0219 17.2349 23.2837 16.9739 23.4665 16.6596C23.6492 16.3452 23.7465 15.9886 23.7487 15.625V9.375C23.7465 9.01143 23.6492 8.65476 23.4665 8.34045C23.2837 8.02613 23.0219 7.76512 22.707 7.58333ZM21.6654 9.375V15.625H14.3737V9.375H21.6654ZM6.04036 19.7917V5.20833H20.6237V7.29167H14.3737C13.2279 7.29167 12.2904 8.22917 12.2904 9.375V15.625C12.2904 16.7708 13.2279 17.7083 14.3737 17.7083H20.6237V19.7917H6.04036Z" fill="#0F172A"/>
<path d="M17.5 14.0625C17.9144 14.0625 18.3118 13.8979 18.6049 13.6049C18.8979 13.3118 19.0625 12.9144 19.0625 12.5C19.0625 12.0856 18.8979 11.6882 18.6049 11.3951C18.3118 11.1021 17.9144 10.9375 17.5 10.9375C17.0856 10.9375 16.6882 11.1021 16.3951 11.3951C16.1021 11.6882 15.9375 12.0856 15.9375 12.5C15.9375 12.9144 16.1021 13.3118 16.3951 13.6049C16.6882 13.8979 17.0856 14.0625 17.5 14.0625Z" fill="#0F172A"/>
</svg>
