<svg width="24" height="24" viewBox="0 0 24 24" fill="none" xmlns="http://www.w3.org/2000/svg">
<path fill-rule="evenodd" clip-rule="evenodd" d="M16.0002 8.75997C15.9675 10.3933 14.6339 11.7003 13.0002 11.7C11.386 11.6734 10.0823 10.3741 10.0502 8.75997V7.62997C10.05 6.96436 10.3185 6.32684 10.7947 5.86186C11.271 5.39688 11.9148 5.1438 12.5802 5.15997H13.5202C14.177 5.15731 14.8079 5.41637 15.2732 5.87987C15.7386 6.34338 16.0002 6.97315 16.0002 7.62997V8.75997ZM12.5502 6.62997C11.9979 6.62997 11.5502 7.07769 11.5502 7.62997L11.5902 8.75997C11.5902 9.56078 12.2394 10.21 13.0402 10.21C13.841 10.21 14.4902 9.56078 14.4902 8.75997V7.62997C14.4902 7.07769 14.0425 6.62997 13.4902 6.62997H12.5502Z" fill="black"/>
<path fill-rule="evenodd" clip-rule="evenodd" d="M23.4802 15.3L23.5902 16.86C23.7058 17.3482 23.5929 17.8625 23.2836 18.2575C22.9742 18.6525 22.5019 18.8852 22.0002 18.89H17.5102C17.1185 19.3075 16.5727 19.5461 16.0002 19.55H10.0002C9.3988 19.558 8.82306 19.3066 8.42022 18.86C8.32717 18.8703 8.23327 18.8703 8.14022 18.86H3.55022C3.06219 18.8416 2.60739 18.6079 2.30823 18.2219C2.00907 17.8359 1.89628 17.3372 2.00022 16.86L2.15022 15.3C2.29614 14.5556 2.94182 14.0141 3.70022 14H8.00022C8.17971 13.99 8.35947 14.0138 8.53022 14.07C8.91387 13.5907 9.49636 13.3142 10.1102 13.32H15.8902C16.4682 13.3178 17.0188 13.5658 17.4002 14C17.4699 13.9901 17.5406 13.9901 17.6102 14H21.9302C22.6886 14.0141 23.3343 14.5556 23.4802 15.3ZM17.5502 17.36H22.0802C22.1108 17.3011 22.1145 17.2318 22.0902 17.17V16.97L21.9902 15.55L21.9302 15.47H17.4002C16.9775 15.4715 16.574 15.2934 16.2902 14.98C16.191 14.8613 16.0449 14.7919 15.8902 14.79H10.1102C9.94269 14.7921 9.78492 14.8692 9.68022 15C9.39476 15.3388 8.97329 15.5331 8.53022 15.53C8.34879 15.5308 8.16888 15.4969 8.00022 15.43H3.75022C3.69022 15.43 3.69022 15.45 3.69022 15.51L3.59022 16.93V17.13C3.56284 17.1903 3.56284 17.2596 3.59022 17.32H8.18022C8.28667 17.3102 8.39378 17.3102 8.50022 17.32C8.90662 17.3275 9.29119 17.5053 9.56022 17.81C9.67056 17.9391 9.83044 18.0154 10.0002 18.02H16.0402C16.2103 18.0167 16.3707 17.9401 16.4802 17.81C16.7614 17.5215 17.1474 17.3592 17.5502 17.36Z" fill="black"/>
<path fill-rule="evenodd" clip-rule="evenodd" d="M21.9702 10.26C21.9702 11.475 20.9852 12.46 19.7702 12.46C19.185 12.4626 18.6229 12.232 18.2081 11.8192C17.7934 11.4063 17.5602 10.8452 17.5602 10.26V9.41997C17.5602 8.92932 17.7551 8.45877 18.1021 8.11182C18.449 7.76488 18.9196 7.56997 19.4102 7.56997H20.1202C21.1419 7.56997 21.9702 8.39824 21.9702 9.41997V10.26ZM19.1627 9.21248C19.0971 9.27812 19.0602 9.36714 19.0602 9.45997V10.3C19.1028 10.657 19.4056 10.9259 19.7652 10.9259C20.1248 10.9259 20.4276 10.657 20.4702 10.3V9.45997C20.4702 9.26667 20.3135 9.10997 20.1202 9.10997H19.4102C19.3174 9.10997 19.2284 9.14685 19.1627 9.21248Z" fill="black"/>
<path fill-rule="evenodd" clip-rule="evenodd" d="M7.42232 11.8192C7.00758 12.232 6.44543 12.4626 5.86022 12.46C5.27674 12.46 4.71717 12.2282 4.30459 11.8156C3.89201 11.403 3.66022 10.8434 3.66022 10.26V9.41997C3.66022 8.39824 4.48849 7.56997 5.51022 7.56997H6.22022C7.24195 7.56997 8.07022 8.39824 8.07022 9.41997V10.26C8.07023 10.8452 7.83707 11.4063 7.42232 11.8192ZM5.51022 9.10997C5.31692 9.10997 5.16022 9.26667 5.16022 9.45997V10.3C5.20282 10.657 5.50563 10.9259 5.86522 10.9259C6.22481 10.9259 6.52762 10.657 6.57022 10.3V9.45997C6.57022 9.26667 6.41352 9.10997 6.22022 9.10997H5.51022Z" fill="black"/>
</svg>
