<svg width="26" height="25" viewBox="0 0 26 25" fill="none" xmlns="http://www.w3.org/2000/svg">
<g clip-path="url(#clip0_844_33898)">
<path d="M7.60293 7.29199C7.57636 8.59079 7.66595 9.88936 7.87064 11.1722C8.25762 12.8821 9.94095 14.6665 10.2462 15.4524C11.8993 13.4941 17.6665 11.2816 21.2107 13.1404C25.2732 15.7633 24.93 20.1717 22.28 22.0915C21.4623 22.6831 18.8946 23.8623 15.4493 23.9482C12.7144 24.017 10.741 23.7331 9.88106 23.3029C8.46231 23.4847 5.46439 23.4639 4.23991 22.217C3.40085 21.3623 1.68314 16.4555 2.71491 11.2217C3.80501 5.69408 5.62689 1.04199 7.5946 1.04199C8.55814 1.04199 10.1248 1.07376 10.8561 1.66699C11.5873 2.26022 11.0618 4.02845 10.8321 4.27116C11.0784 4.46865 11.2412 4.75186 11.2877 5.06415C11.3342 5.37644 11.2612 5.69479 11.0831 5.95553C10.7035 6.58991 9.36074 7.25189 8.85345 7.37949C8.43513 7.43946 8.00883 7.40963 7.60293 7.29199V7.29199Z" stroke="#0F172A" stroke-width="2" stroke-miterlimit="10" stroke-linecap="square"/>
<path d="M12.8125 18.7507C15.2851 19.3818 17.9071 19.0072 20.1042 17.709" stroke="#0F172A" stroke-width="2" stroke-miterlimit="10" stroke-linecap="square"/>
</g>
<defs>
<clipPath id="clip0_844_33898">
<rect width="25" height="25" fill="white" transform="translate(0.832031)"/>
</clipPath>
</defs>
</svg>
