<svg width="38" height="38" viewBox="0 0 38 38" fill="none" xmlns="http://www.w3.org/2000/svg">
<rect x="0.996094" y="0.725586" width="36.904" height="36.904" rx="9.22599" fill="#22D3EE"/>
<g clip-path="url(#clip0_857_51050)">
<path d="M19.45 26.8654C23.6962 26.8654 27.1384 23.4232 27.1384 19.1771C27.1384 14.931 23.6962 11.4888 19.45 11.4888C15.2039 11.4888 11.7617 14.931 11.7617 19.1771C11.7617 23.4232 15.2039 26.8654 19.45 26.8654Z" stroke="white" stroke-width="1.53767" stroke-linecap="round" stroke-linejoin="round"/>
<path d="M19.4492 23.0215H19.4569" stroke="white" stroke-width="1.53767" stroke-linecap="round" stroke-linejoin="round"/>
<path d="M17.2109 16.8702C17.3917 16.3564 17.7485 15.9231 18.2181 15.6471C18.6877 15.3711 19.2398 15.2702 19.7767 15.3623C20.3135 15.4544 20.8005 15.7335 21.1513 16.1502C21.5021 16.5669 21.694 17.0943 21.6932 17.639C21.6932 19.1767 19.3867 19.9455 19.3867 19.9455" stroke="white" stroke-width="1.53767" stroke-linecap="round" stroke-linejoin="round"/>
</g>
<defs>
<clipPath id="clip0_857_51050">
<rect width="18.452" height="18.452" fill="white" transform="translate(10.2227 9.95117)"/>
</clipPath>
</defs>
</svg>
