<svg width="38" height="38" viewBox="0 0 38 38" fill="none" xmlns="http://www.w3.org/2000/svg">
<rect x="0.996094" y="0.561523" width="36.904" height="36.904" rx="9.22599" fill="#1E293B"/>
<path d="M26.3682 19.6216C26.2473 20.9303 25.7561 22.1775 24.9522 23.2173C24.1483 24.257 23.0649 25.0463 21.8288 25.4928C20.5927 25.9393 19.255 26.0245 17.9722 25.7385C16.6894 25.4525 15.5146 24.807 14.5853 23.8777C13.6559 22.9483 13.0105 21.7735 12.7244 20.4908C12.4384 19.208 12.5236 17.8703 12.9701 16.6341C13.4166 15.398 14.2059 14.3146 15.2457 13.5107C16.2854 12.7068 17.5326 12.2157 18.8414 12.0947C18.0751 13.1313 17.7064 14.4085 17.8023 15.694C17.8982 16.9794 18.4522 18.1878 19.3637 19.0993C20.2752 20.0107 21.4835 20.5648 22.769 20.6607C24.0545 20.7565 25.3316 20.3878 26.3682 19.6216V19.6216Z" stroke="white" stroke-width="1.53767" stroke-linecap="round" stroke-linejoin="round"/>
</svg>
