<svg width="38" height="38" viewBox="0 0 38 38" fill="none" xmlns="http://www.w3.org/2000/svg">
<rect x="0.996094" y="0.97998" width="36.904" height="36.904" rx="9.22599" fill="#69C9D0"/>
<g clip-path="url(#clip0_857_51026)">
<path d="M24.0598 16.3571C24.0598 15.1337 23.5738 13.9604 22.7087 13.0953C21.8436 12.2302 20.6703 11.7441 19.4468 11.7441C18.2234 11.7441 17.0501 12.2302 16.185 13.0953C15.3199 13.9604 14.8338 15.1337 14.8338 16.3571C14.8338 21.739 12.5273 23.2766 12.5273 23.2766H26.3663C26.3663 23.2766 24.0598 21.739 24.0598 16.3571Z" stroke="white" stroke-width="1.53767" stroke-linecap="round" stroke-linejoin="round"/>
<path d="M20.7773 26.3521C20.6422 26.5851 20.4482 26.7785 20.2147 26.9129C19.9813 27.0474 19.7167 27.1182 19.4473 27.1182C19.1779 27.1182 18.9132 27.0474 18.6798 26.9129C18.4464 26.7785 18.2524 26.5851 18.1172 26.3521" stroke="white" stroke-width="1.53767" stroke-linecap="round" stroke-linejoin="round"/>
</g>
<defs>
<clipPath id="clip0_857_51026">
<rect width="18.452" height="18.452" fill="white" transform="translate(10.2227 10.2065)"/>
</clipPath>
</defs>
</svg>
