<svg width="49" height="53" viewBox="0 0 49 53" fill="none" xmlns="http://www.w3.org/2000/svg">
<path d="M45.1407 45.8491L45.0486 45.8395C45.0567 45.8468 44.9807 46.1183 44.7268 46.4457C44.3534 46.9443 43.639 47.561 42.7249 48.012C41.8091 48.4687 40.7027 48.7733 39.5073 48.7725C38.1131 48.7685 36.588 48.3765 34.9595 47.2499C33.3996 46.1612 32.5913 45.289 32.0524 44.4114C31.6482 43.7478 31.3759 43.0382 31.1156 42.1225C30.7251 40.7558 30.3899 38.9527 29.6616 36.5967C28.9318 34.2383 27.8027 31.3368 25.8128 27.6788C24.2255 24.7734 22.8628 20.4396 22.8717 16.3371C22.8717 14.6164 23.1045 12.9385 23.6234 11.4053C24.1438 9.86976 24.9416 8.47795 26.1022 7.2721C28.847 4.43681 32.012 3.31834 35.0218 3.3102C37.2 3.30857 39.29 3.91872 40.9848 4.94198C42.6837 5.96432 43.9688 7.38603 44.6251 8.96766L47.6801 7.69396C46.7054 5.35814 44.9095 3.44265 42.6933 2.10587C40.4732 0.76981 37.8133 0.00117204 35.0217 -0.000455568C31.1721 -0.0085936 27.0574 1.50122 23.7195 4.97494C22.1912 6.55738 21.1421 8.40502 20.4874 10.3448C19.8312 12.2861 19.5621 14.3205 19.5613 16.337C19.5709 21.1515 21.0718 25.8708 22.9048 29.2597C24.5851 32.3527 25.5873 34.8057 26.2613 36.8343C26.7664 38.3571 27.0882 39.6422 27.3701 40.81C27.7962 42.5509 28.1226 44.0849 28.9381 45.6294C29.3446 46.3956 29.8725 47.1391 30.5505 47.8545C31.2294 48.5705 32.0538 49.2607 33.0689 49.9671C35.2147 51.4648 37.4624 52.0879 39.5072 52.083C41.9302 52.0797 44.0413 51.2506 45.5947 50.1376C46.3738 49.5767 47.0204 48.9439 47.507 48.2487C47.9871 47.5512 48.3476 46.7851 48.3588 45.8491H45.1407Z" fill="black"/>
<path d="M38.1973 26.1464C37.0382 26.3621 35.9819 27.0225 35.2546 28.0125C34.5216 29.0019 34.1166 30.299 34.1183 31.7765C34.1183 32.5677 34.2322 33.4139 34.4706 34.307C34.882 35.8467 35.5884 37.1034 36.5291 38.0005C37.4642 38.8968 38.6597 39.4198 39.9002 39.4166C41.1917 39.4198 42.4688 38.8541 43.5016 37.8422C44.1854 37.1762 44.6056 36.3276 44.8545 35.4224C45.105 34.5139 45.194 33.5295 45.1956 32.4837C45.194 30.7387 44.9387 28.812 44.6056 26.8181C44.2709 24.8258 43.8548 22.7689 43.5137 20.8081C43.1394 18.6865 42.5487 16.4203 41.3549 14.5566C40.7567 13.6279 39.9922 12.7954 39.0143 12.1966C38.0395 11.5969 36.8579 11.2534 35.5437 11.2566C35.4435 11.2566 35.3433 11.2581 35.243 11.2622C33.6403 11.3131 32.2768 11.9104 31.3538 12.8835C30.426 13.8525 29.9476 15.1053 29.7681 16.3952C29.6735 17.0749 30.1472 17.702 30.8269 17.7958C31.5058 17.8904 32.1329 17.4168 32.2267 16.7379V16.7371C32.3545 15.8174 32.6762 15.0883 33.1449 14.6034C33.6177 14.1224 34.2473 13.7935 35.3368 13.7434L35.5437 13.7394C36.4441 13.7427 37.1238 13.9544 37.7179 14.3149C38.6021 14.8516 39.3222 15.7996 39.879 17.0401C40.4359 18.2735 40.8133 19.7639 41.0679 21.2332C41.3879 23.0711 41.7565 24.9381 42.0661 26.7275C41.2263 26.2757 40.2864 26.0381 39.3303 26.039C38.953 26.0389 38.5738 26.0745 38.1973 26.1464ZM42.6813 31.8507C42.6837 31.8702 42.6902 31.888 42.6935 31.9074C42.7 32.0988 42.7128 32.301 42.7128 32.4837C42.7144 33.3808 42.6296 34.1599 42.4624 34.7628C42.2942 35.3706 42.0559 35.7845 41.7704 36.0625C41.106 36.7018 40.474 36.9313 39.9002 36.9336C39.3482 36.9313 38.7913 36.7203 38.2409 36.2022C37.6962 35.685 37.1838 34.8477 36.8694 33.6668C36.681 32.9605 36.601 32.3284 36.601 31.7764C36.6026 30.7418 36.8758 29.9958 37.2499 29.4884C37.629 28.9824 38.1075 28.6931 38.6595 28.5855C38.885 28.5427 39.1097 28.5218 39.3303 28.5218C40.1539 28.5233 40.9168 28.8078 41.5109 29.3453C42.1025 29.886 42.5528 30.6846 42.6813 31.8507Z" fill="black"/>
<path d="M13.4359 15.953C13.0916 15.3605 12.3319 15.1594 11.7395 15.5052C11.1462 15.8503 10.9466 16.6093 11.2908 17.2025C11.5641 17.6721 11.821 18.1482 12.0505 18.6339C14.6142 24.0473 14.2966 30.0914 11.7216 35.0392C11.4056 35.6485 11.6416 36.397 12.2493 36.7138C12.8587 37.0298 13.6071 36.7947 13.924 36.186C16.8417 30.5834 17.2029 23.7144 14.2941 17.5703C14.0276 17.0069 13.7365 16.4694 13.4359 15.953Z" fill="black"/>
<path d="M8.09265 18.6517C7.74749 18.0593 6.98771 17.8581 6.39455 18.2023C5.8021 18.5483 5.6017 19.3081 5.94512 19.9004C6.13993 20.2342 6.32018 20.5664 6.47939 20.9034C8.27687 24.7004 8.05298 28.9331 6.24826 32.4036C5.93149 33.0114 6.16831 33.7614 6.77602 34.0782C7.38383 34.3951 8.13385 34.1583 8.45072 33.5506C10.599 29.4269 10.8657 24.3675 8.72396 19.8414C8.5258 19.4235 8.31166 19.0291 8.09265 18.6517Z" fill="black"/>
<path d="M3.08251 21.9622C2.94823 21.6793 2.80602 21.4296 2.6751 21.2024C2.33086 20.6092 1.57107 20.4071 0.97781 20.7507C0.384547 21.0949 0.182521 21.8555 0.526861 22.4479V22.4488C0.647304 22.6565 0.753912 22.8472 0.837938 23.0242C1.87004 25.2056 1.7376 27.6214 0.701422 29.6153C0.383734 30.2238 0.62055 30.9723 1.22836 31.2891C1.83617 31.6067 2.58538 31.3708 2.90134 30.763L2.90296 30.7622C4.10882 28.4506 4.3965 25.6752 3.52695 23.0671C3.40254 22.6952 3.25382 22.326 3.08251 21.9622Z" fill="black"/>
</svg>
