<svg width="48" height="44" viewBox="0 0 48 44" fill="none" xmlns="http://www.w3.org/2000/svg">
<path d="M43.8837 14.2892V6.73856C43.8837 5.48119 44.9066 4.45838 46.1638 4.45838V0.787598C42.8825 0.787598 40.2129 3.45713 40.2129 6.73856V13.0632L38.6551 13.0577V6.73856C38.6551 3.45722 35.9856 0.787598 32.7043 0.787598V4.45838C33.9613 4.45838 34.9843 5.48119 34.9843 6.73856V11.4205C33.7253 9.77231 32.2363 8.3714 30.5331 7.2389C27.73 5.37534 24.4027 4.28063 20.6441 3.98522C15.5418 3.5836 10.5913 5.19375 6.70102 8.51719C2.81059 11.8406 0.447247 16.4801 0.046372 21.5811C-0.371096 26.8944 2.01775 31.7921 5.96368 34.8141C5.83402 34.9207 5.70334 35.0345 5.57284 35.1553C4.27421 36.3582 2.72603 38.5322 2.72603 42.0576V43.8931H38.5427C43.7571 43.8931 47.9993 39.6509 47.9993 34.4366V21.6246C47.9993 18.5245 46.3502 15.803 43.8837 14.2892ZM3.70581 21.8688C4.02981 17.7454 5.94034 13.9949 9.08508 11.3084C12.2298 8.6219 16.2323 7.31962 20.3563 7.64494C27.6432 8.21756 31.4053 12.1852 33.2962 15.5109C33.3033 15.5233 33.31 15.5355 33.317 15.5479C31.7608 17.1052 30.7969 19.2546 30.7969 21.6247V26.348C29.8469 26.6532 28.4907 27.1775 26.7934 28.063C26.8719 27.6433 26.9296 27.2158 26.9639 26.7808C27.2015 23.7597 26.0235 20.9489 23.9896 19C22.4266 17.5021 20.3581 16.5129 18.0366 16.3305C15.9333 16.1656 13.8912 16.8289 12.2869 18.1993C10.6827 19.57 9.70805 21.4831 9.54268 23.5865L13.2022 23.8742C13.2907 22.748 13.8123 21.7241 14.6712 20.9904C15.5301 20.2567 16.6235 19.9008 17.7492 19.99C21.0735 20.2513 23.5657 23.1684 23.3044 26.493C22.9409 31.1176 18.8835 34.5859 14.2582 34.221C7.9434 33.7249 3.20959 28.1835 3.70581 21.8688ZM44.3287 34.4366H44.3284C44.3284 37.6268 41.7329 40.2223 38.5426 40.2223H6.63277C6.88215 39.3307 7.3283 38.5681 7.96787 37.9431C8.66687 37.2602 9.39202 36.9467 9.59124 36.8689C10.9594 37.4101 12.4292 37.7595 13.9708 37.8808C14.2914 37.906 14.6099 37.9184 14.9262 37.9184C17.8825 37.9183 20.6286 36.8358 22.7533 35.0243L22.7549 35.0267C27.7379 31.2205 31.5636 29.7997 32.9018 29.5773L34.4682 29.3791V21.6251C34.4682 18.9066 36.6799 16.6949 39.3986 16.6949C42.1172 16.6949 44.3288 18.9066 44.3288 21.6251V34.4366H44.3287Z" fill="black"/>
</svg>
